<mxfile host="app.diagrams.net" agent="Mozilla/5.0 (Windows NT 10.0; Win64; x64) AppleWebKit/537.36 (KHTML, like Gecko) Chrome/132.0.0.0 Safari/537.36" version="26.0.16">
  <diagram name="페이지-1" id="H9WtZ99kVyIT0Gjc967c">
    <mxGraphModel dx="819" dy="441" grid="1" gridSize="10" guides="1" tooltips="1" connect="1" arrows="1" fold="1" page="1" pageScale="1" pageWidth="827" pageHeight="1169" math="0" shadow="0">
      <root>
        <mxCell id="0" />
        <mxCell id="1" parent="0" />
        <mxCell id="E3zKF6fo65axN2jkQWq3-2" value="" style="ellipse;whiteSpace=wrap;html=1;fillColor=none;" vertex="1" parent="1">
          <mxGeometry x="289" y="140" width="250" height="250" as="geometry" />
        </mxCell>
        <mxCell id="E3zKF6fo65axN2jkQWq3-6" value="s1" style="ellipse;whiteSpace=wrap;html=1;fillColor=#dae8fc;strokeColor=#6c8ebf;" vertex="1" parent="1">
          <mxGeometry x="528" y="250" width="30" height="30" as="geometry" />
        </mxCell>
        <mxCell id="E3zKF6fo65axN2jkQWq3-7" value="s2" style="ellipse;whiteSpace=wrap;html=1;fillColor=#dae8fc;strokeColor=#6c8ebf;" vertex="1" parent="1">
          <mxGeometry x="399" y="378" width="30" height="30" as="geometry" />
        </mxCell>
        <mxCell id="E3zKF6fo65axN2jkQWq3-9" value="s0" style="ellipse;whiteSpace=wrap;html=1;fillColor=#dae8fc;strokeColor=#6c8ebf;" vertex="1" parent="1">
          <mxGeometry x="399" y="122" width="30" height="30" as="geometry" />
        </mxCell>
        <mxCell id="E3zKF6fo65axN2jkQWq3-13" value="중재자" style="rounded=0;whiteSpace=wrap;html=1;" vertex="1" parent="1">
          <mxGeometry x="250" y="255" width="70" height="20" as="geometry" />
        </mxCell>
        <mxCell id="E3zKF6fo65axN2jkQWq3-14" value="" style="endArrow=classic;html=1;rounded=0;exitX=0.876;exitY=-0.029;exitDx=0;exitDy=0;entryX=0;entryY=1;entryDx=0;entryDy=0;exitPerimeter=0;" edge="1" parent="1" source="E3zKF6fo65axN2jkQWq3-13" target="E3zKF6fo65axN2jkQWq3-9">
          <mxGeometry width="50" height="50" relative="1" as="geometry">
            <mxPoint x="360" y="300" as="sourcePoint" />
            <mxPoint x="410" y="250" as="targetPoint" />
          </mxGeometry>
        </mxCell>
        <mxCell id="E3zKF6fo65axN2jkQWq3-15" value="put(key1, val1)" style="edgeLabel;html=1;align=center;verticalAlign=middle;resizable=0;points=[];rotation=-50;" vertex="1" connectable="0" parent="E3zKF6fo65axN2jkQWq3-14">
          <mxGeometry x="-0.0179" y="1" relative="1" as="geometry">
            <mxPoint x="-10" y="-2" as="offset" />
          </mxGeometry>
        </mxCell>
        <mxCell id="E3zKF6fo65axN2jkQWq3-16" value="" style="endArrow=classic;html=1;rounded=0;exitX=0.5;exitY=1;exitDx=0;exitDy=0;entryX=1;entryY=0.25;entryDx=0;entryDy=0;dashed=1;" edge="1" parent="1" source="E3zKF6fo65axN2jkQWq3-9" target="E3zKF6fo65axN2jkQWq3-13">
          <mxGeometry width="50" height="50" relative="1" as="geometry">
            <mxPoint x="360" y="300" as="sourcePoint" />
            <mxPoint x="410" y="250" as="targetPoint" />
          </mxGeometry>
        </mxCell>
        <mxCell id="E3zKF6fo65axN2jkQWq3-17" value="ACK" style="edgeLabel;html=1;align=center;verticalAlign=middle;resizable=0;points=[];rotation=-50;" vertex="1" connectable="0" parent="E3zKF6fo65axN2jkQWq3-16">
          <mxGeometry x="0.0184" relative="1" as="geometry">
            <mxPoint x="6" y="6" as="offset" />
          </mxGeometry>
        </mxCell>
        <mxCell id="E3zKF6fo65axN2jkQWq3-18" value="" style="endArrow=classic;html=1;rounded=0;exitX=1;exitY=0.25;exitDx=0;exitDy=0;" edge="1" parent="1" source="E3zKF6fo65axN2jkQWq3-13">
          <mxGeometry width="50" height="50" relative="1" as="geometry">
            <mxPoint x="330" y="280" as="sourcePoint" />
            <mxPoint x="526" y="260" as="targetPoint" />
          </mxGeometry>
        </mxCell>
        <mxCell id="E3zKF6fo65axN2jkQWq3-19" value="put(key1, val1)" style="edgeLabel;html=1;align=center;verticalAlign=middle;resizable=0;points=[];rotation=0;" vertex="1" connectable="0" parent="E3zKF6fo65axN2jkQWq3-18">
          <mxGeometry x="-0.0179" y="1" relative="1" as="geometry">
            <mxPoint x="-7" y="-9" as="offset" />
          </mxGeometry>
        </mxCell>
        <mxCell id="E3zKF6fo65axN2jkQWq3-20" value="" style="endArrow=classic;html=1;rounded=0;entryX=1;entryY=0.75;entryDx=0;entryDy=0;dashed=1;exitX=-0.005;exitY=0.643;exitDx=0;exitDy=0;exitPerimeter=0;" edge="1" parent="1" source="E3zKF6fo65axN2jkQWq3-6">
          <mxGeometry width="50" height="50" relative="1" as="geometry">
            <mxPoint x="530" y="268" as="sourcePoint" />
            <mxPoint x="320" y="268" as="targetPoint" />
          </mxGeometry>
        </mxCell>
        <mxCell id="E3zKF6fo65axN2jkQWq3-21" value="ACK" style="edgeLabel;html=1;align=center;verticalAlign=middle;resizable=0;points=[];rotation=0;" vertex="1" connectable="0" parent="E3zKF6fo65axN2jkQWq3-20">
          <mxGeometry x="-0.0179" y="1" relative="1" as="geometry">
            <mxPoint x="-13" y="9" as="offset" />
          </mxGeometry>
        </mxCell>
        <mxCell id="E3zKF6fo65axN2jkQWq3-22" value="" style="endArrow=classic;html=1;rounded=0;exitX=1;exitY=0.75;exitDx=0;exitDy=0;entryX=0.5;entryY=0;entryDx=0;entryDy=0;" edge="1" parent="1" source="E3zKF6fo65axN2jkQWq3-13" target="E3zKF6fo65axN2jkQWq3-7">
          <mxGeometry width="50" height="50" relative="1" as="geometry">
            <mxPoint x="300" y="310" as="sourcePoint" />
            <mxPoint x="506" y="310" as="targetPoint" />
          </mxGeometry>
        </mxCell>
        <mxCell id="E3zKF6fo65axN2jkQWq3-23" value="put(key1, val1)" style="edgeLabel;html=1;align=center;verticalAlign=middle;resizable=0;points=[];rotation=50;" vertex="1" connectable="0" parent="E3zKF6fo65axN2jkQWq3-22">
          <mxGeometry x="-0.0179" y="1" relative="1" as="geometry">
            <mxPoint x="13" y="-2" as="offset" />
          </mxGeometry>
        </mxCell>
        <mxCell id="E3zKF6fo65axN2jkQWq3-24" value="" style="endArrow=classic;html=1;rounded=0;entryX=0.908;entryY=1.086;entryDx=0;entryDy=0;dashed=1;exitX=0;exitY=0;exitDx=0;exitDy=0;entryPerimeter=0;" edge="1" parent="1" source="E3zKF6fo65axN2jkQWq3-7" target="E3zKF6fo65axN2jkQWq3-13">
          <mxGeometry width="50" height="50" relative="1" as="geometry">
            <mxPoint x="528" y="341" as="sourcePoint" />
            <mxPoint x="320" y="340" as="targetPoint" />
          </mxGeometry>
        </mxCell>
        <mxCell id="E3zKF6fo65axN2jkQWq3-25" value="ACK" style="edgeLabel;html=1;align=center;verticalAlign=middle;resizable=0;points=[];rotation=45;" vertex="1" connectable="0" parent="E3zKF6fo65axN2jkQWq3-24">
          <mxGeometry x="-0.0179" y="1" relative="1" as="geometry">
            <mxPoint x="-8" y="6" as="offset" />
          </mxGeometry>
        </mxCell>
        <mxCell id="E3zKF6fo65axN2jkQWq3-26" value="ACK = acknowledgement" style="text;html=1;align=center;verticalAlign=middle;resizable=0;points=[];autosize=1;strokeColor=none;fillColor=none;" vertex="1" parent="1">
          <mxGeometry x="539" y="60" width="160" height="30" as="geometry" />
        </mxCell>
      </root>
    </mxGraphModel>
  </diagram>
</mxfile>
